<svg width="14" height="20" viewBox="0 0 14 20" fill="none" xmlns="http://www.w3.org/2000/svg">
<path fill-rule="evenodd" clip-rule="evenodd" d="M11.7912 11.3904C12.9523 10.1906 13.6668 8.55603 13.6668 6.75456C13.6668 3.07266 10.6821 0.0878906 7.00016 0.0878906C3.31826 0.0878906 0.333496 3.07266 0.333496 6.75456C0.333496 8.55603 1.04803 10.1906 2.20914 11.3904L1.0183 18.5354L2.99501 19.9122L7.00016 17.6236L11.0053 19.9122L12.982 18.5354L11.7912 11.3904ZM11.0002 6.75456C11.0002 8.9637 9.2093 10.7546 7.00016 10.7546C4.79102 10.7546 3.00016 8.9637 3.00016 6.75456C3.00016 4.54542 4.79102 2.75456 7.00016 2.75456C9.2093 2.75456 11.0002 4.54542 11.0002 6.75456ZM9.35492 12.9934C8.62274 13.2699 7.82912 13.4212 7.00016 13.4212C6.1712 13.4212 5.37758 13.2699 4.64541 12.9934L4.11039 16.2035L7.00016 14.5522L9.88993 16.2035L9.35492 12.9934Z" fill="white"/>
</svg>
