<svg width="16" height="16" viewBox="0 0 16 16" fill="none" xmlns="http://www.w3.org/2000/svg">
<path fill-rule="evenodd" clip-rule="evenodd" d="M6.63647 7.47799C6.45827 7.65618 6.26745 7.81405 6.06689 7.95158C6.35499 8.33045 6.6625 8.68254 6.99002 9.01005C7.31753 9.33757 7.66962 9.64508 8.04849 9.93319C8.18603 9.73262 8.34389 9.5418 8.52208 9.36361C10.0842 7.80151 12.6168 7.80151 14.1789 9.36361C15.1041 10.2887 15.5241 11.5619 15.3535 12.7646C15.3392 12.7621 15.3677 12.7671 15.3535 12.7646L14.89 15.3907C10.7264 14.6559 7.48677 13.278 5.1044 10.8957C2.72203 8.5133 1.34414 5.27372 0.609375 1.11004L3.23546 0.646614C3.23293 0.632358 3.23799 0.660903 3.23546 0.646614C4.43821 0.475959 5.71134 0.896011 6.63647 1.82114C8.19856 3.38323 8.19856 5.91589 6.63647 7.47799ZM3.84736 3.31681C4.09348 4.16205 4.37705 4.93437 4.69997 5.64069C4.71724 5.62512 4.73421 5.60901 4.75085 5.59237C5.27155 5.07167 5.27155 4.22745 4.75085 3.70676C4.5005 3.45641 4.17537 3.32642 3.84736 3.31681ZM12.6833 12.1527C12.6736 11.8247 12.5437 11.4996 12.2933 11.2492C11.7726 10.7285 10.9284 10.7285 10.4077 11.2492C10.3911 11.2659 10.375 11.2828 10.3594 11.3001C11.0657 11.623 11.838 11.9066 12.6833 12.1527Z" fill="white"/>
</svg>
