<svg width="17" height="15" viewBox="0 0 17 15" fill="none" xmlns="http://www.w3.org/2000/svg">
<path fill-rule="evenodd" clip-rule="evenodd" d="M2.69059 4.74376L0.833008 1.84129L2.79831 0.583496L4.3208 2.96239H16.5367L13.0367 9.96239H5.82177L2.69059 4.74376ZM5.74288 5.29573L7.14288 7.62906H11.5946L12.7613 5.29573H5.74288Z" fill="white"/>
<path d="M8.81566 12.8791C8.81566 13.8456 8.03216 14.6291 7.06566 14.6291C6.09916 14.6291 5.31566 13.8456 5.31566 12.8791C5.31566 11.9126 6.09916 11.1291 7.06566 11.1291C8.03216 11.1291 8.81566 11.9126 8.81566 12.8791Z" fill="white"/>
<path d="M11.7323 14.6291C12.6988 14.6291 13.4823 13.8456 13.4823 12.8791C13.4823 11.9126 12.6988 11.1291 11.7323 11.1291C10.7658 11.1291 9.98232 11.9126 9.98232 12.8791C9.98232 13.8456 10.7658 14.6291 11.7323 14.6291Z" fill="white"/>
</svg>
