<svg width="18" height="16" viewBox="0 0 18 16" fill="none" xmlns="http://www.w3.org/2000/svg">
<path d="M13.167 0.916748H4.83366C2.33366 0.916748 0.666992 2.16675 0.666992 5.08342V10.9167C0.666992 13.8334 2.33366 15.0834 4.83366 15.0834H13.167C15.667 15.0834 17.3337 13.8334 17.3337 10.9167V5.08342C17.3337 2.16675 15.667 0.916748 13.167 0.916748ZM13.5587 5.99175L10.9503 8.07508C10.4003 8.51675 9.70033 8.73342 9.00033 8.73342C8.30033 8.73342 7.59199 8.51675 7.05033 8.07508L4.44199 5.99175C4.17533 5.77508 4.13366 5.37508 4.34199 5.10841C4.55866 4.84175 4.95033 4.79175 5.21699 5.00841L7.82533 7.09175C8.45866 7.60008 9.53366 7.60008 10.167 7.09175L12.7753 5.00841C13.042 4.79175 13.442 4.83341 13.6503 5.10841C13.867 5.37508 13.8253 5.77508 13.5587 5.99175Z" fill="white"/>
</svg>
