<svg width="16" height="16" viewBox="0 0 16 16" fill="none" xmlns="http://www.w3.org/2000/svg">
<path fill-rule="evenodd" clip-rule="evenodd" d="M1.35761 7.52888C5.49193 5.72762 8.24879 4.54013 9.6282 3.96639C13.5667 2.32824 14.3851 2.04368 14.9185 2.03428C15.0358 2.03221 15.2981 2.06129 15.468 2.19916C15.6115 2.31558 15.651 2.47285 15.6699 2.58323C15.6887 2.69361 15.7123 2.94505 15.6936 3.14152C15.4801 5.38402 14.5566 10.826 14.0868 13.3376C13.888 14.4004 13.4966 14.7567 13.1176 14.7916C12.294 14.8674 11.6687 14.2473 10.871 13.7244C9.6228 12.9062 8.91765 12.3969 7.70606 11.5985C6.30586 10.6758 7.21355 10.1686 8.01152 9.33981C8.22035 9.12291 11.849 5.82235 11.9193 5.52294C11.928 5.48549 11.9362 5.34591 11.8533 5.27221C11.7703 5.1985 11.648 5.22371 11.5596 5.24375C11.4345 5.27216 9.44044 6.59013 5.57762 9.19764C5.01162 9.5863 4.49897 9.77566 4.03964 9.76574C3.53327 9.7548 2.55922 9.47943 1.83512 9.24405C0.946973 8.95535 0.241093 8.80271 0.302559 8.31241C0.334575 8.05703 0.686257 7.79585 1.35761 7.52888Z" fill="white"/>
</svg>
