<svg width="65" height="64" viewBox="0 0 65 64" fill="none" xmlns="http://www.w3.org/2000/svg">
<path fill-rule="evenodd" clip-rule="evenodd" d="M48.5957 38.3975L46.2509 39.2987C43.0045 40.4134 38.1818 40.4285 35.1037 38.9826C31.5396 37.3081 28.991 32.3287 33.0015 29.0766C35.7746 26.8278 39.615 26.2554 43.1765 26.3643C46.9425 26.4789 47.8297 27.4664 48.3374 27.462L48.328 22.9794C46.3828 22.0191 43.4053 20.9856 41.2538 20.4944C35.1205 19.1783 31.9911 19.0416 25.5064 19.7343C22.8441 20.019 19.1594 21.3723 16.9484 22.8957C12.3621 26.0545 10.208 31.9962 12.4771 37.1998C15.6897 44.5672 24.4672 47.0049 31.8316 46.9867C36.2097 46.976 44.4014 45.7253 48.5613 43.2409L48.5957 38.3975Z" fill="#CBCECF"/>
<path d="M37.069 1.7941L37.2384 1.89927C46.4486 7.6073 53.5479 12.0067 61.3994 19.143L61.4263 19.1695C61.667 19.4094 61.9058 19.6437 62.1291 19.8628C64.8533 22.5361 65.5693 23.2389 64.5732 28.4154L64.5182 28.6428C61.974 39.2332 60.0125 47.3954 55.7013 57.1181L55.6863 57.1508C55.5269 57.4701 55.3824 57.7642 55.2474 58.04C53.5648 61.4759 53.1227 62.379 47.9243 63.0251L47.691 63.0434C36.9089 63.8784 28.5985 64.522 18.0815 63.396L18.049 63.3929C17.5969 63.323 17.3262 63.2833 17.073 63.2468C13.3095 62.697 12.3203 62.5528 10.1037 57.7717L10.0131 57.5539C5.89132 47.4798 2.71372 39.715 0.528411 29.2983L0.522783 29.2656C0.484642 29.0301 0.419614 28.6484 0.357713 28.2857C-0.285686 24.5122 -0.455134 23.5204 3.37525 19.9189L3.40151 19.8981L3.55283 19.7684C11.792 12.707 18.1428 7.26409 27.3023 1.95217L27.3317 1.93453C27.6237 1.78276 27.9238 1.62344 28.2052 1.47482C31.5685 -0.307369 32.4527 -0.775901 37.0359 1.77962L37.069 1.7941ZM36.4469 3.19655L36.2774 3.09138L36.2787 3.08886C32.4364 0.950867 31.6973 1.34194 28.9086 2.81933C28.6423 2.96039 28.3584 3.1109 28.0233 3.28471C18.995 8.52358 12.6967 13.9212 4.52824 20.9221L4.40256 21.0297L4.40381 21.031C1.17181 24.0702 1.31249 24.8945 1.8471 28.0294C1.88899 28.2775 1.93526 28.5464 2.00904 29.0005C4.16621 39.2761 7.31881 46.981 11.4087 56.9757L11.4806 57.1514C13.3445 61.1642 14.1686 61.2851 17.2868 61.7404C17.6457 61.7927 18.029 61.8487 18.2741 61.8865C28.6298 62.9924 36.8795 62.3538 47.5791 61.525L47.7454 61.5125C52.1323 60.9671 52.5 60.2171 53.8949 57.3675C54.0325 57.086 54.18 56.7862 54.337 56.4719C58.5838 46.8878 60.5296 38.7899 63.0532 28.2857L63.0907 28.1301C63.9323 23.754 63.3383 23.1703 61.0774 20.9523C60.8654 20.7438 60.6397 20.5228 60.3896 20.2734C52.6469 13.236 45.5945 8.86617 36.4469 3.19655Z" fill="#CBCECF"/>
<path fill-rule="evenodd" clip-rule="evenodd" d="M43.9649 28.9494H53.4183V32.0736H51.173V36.8339H46.2103V32.0736H43.9649V28.9494Z" fill="#CBCECF"/>
<path fill-rule="evenodd" clip-rule="evenodd" d="M48.5957 38.3975L46.2509 39.2987C43.0045 40.4134 38.1818 40.4285 35.1037 38.9826C31.5396 37.3081 28.991 32.3287 33.0015 29.0766C35.7746 26.8278 39.615 26.2554 43.1765 26.3643C46.9425 26.4789 47.8297 27.4664 48.3374 27.462L48.328 22.9794C46.3828 22.0191 43.4053 20.9856 41.2538 20.4944C35.1205 19.1783 31.9911 19.0416 25.5064 19.7343C22.8441 20.019 19.1594 21.3723 16.9484 22.8957C12.3621 26.0545 10.208 31.9962 12.4771 37.1998C15.6897 44.5672 24.4672 47.0049 31.8316 46.9867C36.2097 46.976 44.4014 45.7253 48.5613 43.2409L48.5957 38.3975Z" stroke="#CBCECF" stroke-width="0.755617" stroke-miterlimit="22.9256"/>
<path d="M37.069 1.7941L37.2384 1.89927C46.4486 7.6073 53.5479 12.0067 61.3994 19.143L61.4263 19.1695C61.667 19.4094 61.9058 19.6437 62.1291 19.8628C64.8533 22.5361 65.5693 23.2389 64.5732 28.4154L64.5182 28.6428C61.974 39.2332 60.0125 47.3954 55.7013 57.1181L55.6863 57.1508C55.5269 57.4701 55.3824 57.7642 55.2474 58.04C53.5648 61.4759 53.1227 62.379 47.9243 63.0251L47.691 63.0434C36.9089 63.8784 28.5985 64.522 18.0815 63.396L18.049 63.3929C17.5969 63.323 17.3262 63.2833 17.073 63.2468C13.3095 62.697 12.3203 62.5528 10.1037 57.7717L10.0131 57.5539C5.89132 47.4798 2.71372 39.715 0.528411 29.2983L0.522783 29.2656C0.484642 29.0301 0.419614 28.6484 0.357713 28.2857C-0.285686 24.5122 -0.455134 23.5204 3.37525 19.9189L3.40151 19.8981L3.55283 19.7684C11.792 12.707 18.1428 7.26409 27.3023 1.95217L27.3317 1.93453C27.6237 1.78276 27.9238 1.62344 28.2052 1.47482C31.5685 -0.307369 32.4527 -0.775901 37.0359 1.77962L37.069 1.7941ZM36.4469 3.19655L36.2774 3.09138L36.2787 3.08886C32.4364 0.950867 31.6973 1.34194 28.9086 2.81933C28.6423 2.96039 28.3584 3.1109 28.0233 3.28471C18.995 8.52358 12.6967 13.9212 4.52824 20.9221L4.40256 21.0297L4.40381 21.031C1.17181 24.0702 1.31249 24.8945 1.8471 28.0294C1.88899 28.2775 1.93526 28.5464 2.00904 29.0005C4.16621 39.2761 7.31881 46.981 11.4087 56.9757L11.4806 57.1514C13.3445 61.1642 14.1686 61.2851 17.2868 61.7404C17.6457 61.7927 18.029 61.8487 18.2741 61.8865C28.6298 62.9924 36.8795 62.3538 47.5791 61.525L47.7454 61.5125C52.1323 60.9671 52.5 60.2171 53.8949 57.3675C54.0325 57.086 54.18 56.7862 54.337 56.4719C58.5838 46.8878 60.5296 38.7899 63.0532 28.2857L63.0907 28.1301C63.9323 23.754 63.3383 23.1703 61.0774 20.9523C60.8654 20.7438 60.6397 20.5228 60.3896 20.2734C52.6469 13.236 45.5945 8.86617 36.4469 3.19655Z" stroke="#CBCECF" stroke-width="0.755617" stroke-miterlimit="22.9256"/>
<path fill-rule="evenodd" clip-rule="evenodd" d="M43.9649 28.9494H53.4183V32.0736H51.173V36.8339H46.2103V32.0736H43.9649V28.9494Z" stroke="#CBCECF" stroke-width="0.755617" stroke-miterlimit="22.9256"/>
</svg>
