<svg width="22" height="18" viewBox="0 0 22 18" fill="none" xmlns="http://www.w3.org/2000/svg">
<path fill-rule="evenodd" clip-rule="evenodd" d="M4.14954 5.72848L0.856934 0.199951H3.80013L5.71995 3.39995H21.0664L16.7737 11.6926H7.69386L4.14954 5.72848ZM7.34518 6.06662L9.23788 9.02597H15.1256L16.7516 6.06662H7.34518Z" fill="white"/>
<path d="M11.1496 15.826C11.1496 16.9305 10.2542 17.826 9.14962 17.826C8.04505 17.826 7.14962 16.9305 7.14962 15.826C7.14962 14.7214 8.04505 13.826 9.14962 13.826C10.2542 13.826 11.1496 14.7214 11.1496 15.826Z" fill="white"/>
<path d="M14.483 17.826C15.5875 17.826 16.483 16.9305 16.483 15.826C16.483 14.7214 15.5875 13.826 14.483 13.826C13.3784 13.826 12.483 14.7214 12.483 15.826C12.483 16.9305 13.3784 17.826 14.483 17.826Z" fill="white"/>
</svg>
