<svg width="20" height="20" viewBox="0 0 20 20" fill="none" xmlns="http://www.w3.org/2000/svg">
<path fill-rule="evenodd" clip-rule="evenodd" d="M9.99984 0.666748C4.84518 0.666748 0.666504 4.84542 0.666504 10.0001C0.666504 13.8824 3.03688 17.211 6.40932 18.6178C7.48488 19.0664 8.66235 19.3196 9.89737 19.3329C9.93148 19.3332 9.96564 19.3334 9.99984 19.3334C10.034 19.3334 10.0682 19.3332 10.1023 19.3329C11.3373 19.3196 12.5148 19.0664 13.5904 18.6178C16.9628 17.2111 19.3332 13.8824 19.3332 10.0001C19.3332 4.84542 15.1545 0.666748 9.99984 0.666748ZM11.2451 11.3334C11.0694 12.6515 10.6371 13.8885 9.99984 14.9923C9.36262 13.8885 8.93024 12.6515 8.75462 11.3334H11.2451ZM13.9305 11.3334C13.7455 13.1014 13.1969 14.7613 12.3607 16.2367C14.4742 15.4362 16.0746 13.5921 16.5331 11.3334H13.9305ZM16.5331 8.66675H13.9305C13.7455 6.89871 13.1969 5.2389 12.3606 3.76349C14.4742 4.56398 16.0746 6.40802 16.5331 8.66675ZM11.2451 8.66675H8.75462C8.93024 7.34864 9.36263 6.1117 9.99984 5.00787C10.637 6.1117 11.0694 7.34864 11.2451 8.66675ZM6.06918 8.66675C6.25414 6.89871 6.80281 5.2389 7.63903 3.76349C5.52548 4.56398 3.92502 6.40802 3.46653 8.66675H6.06918ZM3.46653 11.3334C3.92502 13.5921 5.52547 15.4362 7.639 16.2367C6.80279 14.7613 6.25413 13.1014 6.06917 11.3334H3.46653Z" fill="#CBCECF"/>
</svg>
