<svg width="60" height="24" viewBox="0 0 60 24" fill="none" xmlns="http://www.w3.org/2000/svg">
<path fill-rule="evenodd" clip-rule="evenodd" d="M0 23.6679H5.93935V10.0682C8.70479 14.7561 11.4038 19.3313 14.1581 24.0002C16.8961 19.3747 19.6505 14.7078 22.3898 10.0655V23.6679H26.9045H28.3292H44.4299L41.6709 19.1258H28.3292V14.0678H38.8402L36.0812 9.52576H28.3293V4.58864H33.3377L30.5787 0.0465874C27.8495 0.0465874 25.1579 0.000244141 22.39 0.000244141L14.1648 14.3533L5.93951 0.000244141H0.000156708V23.6679L0 23.6679ZM60 0.0465354C50.4816 0.0465354 41.1471 0.0465354 31.6269 0.0465354L34.386 4.58859H41.1538H42.9682V19.1258L45.9334 24.0002L48.9075 19.1258V4.58859H50.4731H57.2409L59.9999 0.0465354H60Z" fill="white"/>
</svg>
