<svg width="18" height="19" viewBox="0 0 18 19" fill="none" xmlns="http://www.w3.org/2000/svg">
<path fill-rule="evenodd" clip-rule="evenodd" d="M12.6531 15.2053C11.5192 15.8216 10.2197 16.1716 8.83838 16.1716C4.4201 16.1716 0.838379 12.5899 0.838379 8.17163C0.838379 3.75335 4.4201 0.171631 8.83838 0.171631C13.2567 0.171631 16.8384 3.75335 16.8384 8.17163C16.8384 10.2403 16.0532 12.1255 14.7647 13.5456L17.3907 16.1716L15.505 18.0572L12.6531 15.2053ZM14.1717 8.17163C14.1717 11.1171 11.7839 13.505 8.83838 13.505C5.89286 13.505 3.50505 11.1171 3.50505 8.17163C3.50505 5.22611 5.89286 2.8383 8.83838 2.8383C11.7839 2.8383 14.1717 5.22611 14.1717 8.17163Z" fill="#CBCECF"/>
</svg>
