<svg width="20" height="18" viewBox="0 0 20 18" fill="none" xmlns="http://www.w3.org/2000/svg">
<path fill-rule="evenodd" clip-rule="evenodd" d="M14.4458 11.9682C15.8088 10.7476 16.6665 8.97416 16.6665 7.00041C16.6665 3.31851 13.6818 0.33374 9.99988 0.33374C6.31798 0.33374 3.33321 3.31851 3.33321 7.00041C3.33321 8.97416 4.19095 10.7476 5.55401 11.9683C3.54016 12.8929 1.86386 14.4263 0.760742 16.3329L3.07053 17.6664C4.45386 15.2756 7.03903 13.6671 9.9999 13.6671C12.9607 13.6671 15.5459 15.2756 16.9292 17.6664L19.239 16.3328C18.1359 14.4263 16.4596 12.8929 14.4458 11.9682ZM13.9999 7.00041C13.9999 9.20955 12.209 11.0004 9.99988 11.0004C7.79074 11.0004 5.99988 9.20955 5.99988 7.00041C5.99988 4.79127 7.79074 3.00041 9.99988 3.00041C12.209 3.00041 13.9999 4.79127 13.9999 7.00041Z" fill="#CBCECF"/>
</svg>
